<svg xmlns="http://www.w3.org/2000/svg" viewBox="0 0 1024 1024" role="img" aria-labelledby="title">
  <title id="title">Logo Kantin G'penk</title>
  <defs>
    <linearGradient id="logoGradient" x1="178" y1="154" x2="846" y2="870" gradientUnits="userSpaceOnUse">
      <stop offset="0" stop-color="#ff2d55"/>
      <stop offset="0.52" stop-color="#ff5a32"/>
      <stop offset="1" stop-color="#ffae18"/>
    </linearGradient>
  </defs>
  <rect width="1024" height="1024" rx="240" fill="url(#logoGradient)"/>
  <path fill="#fff" d="M344 533c10-82 82-145 168-145s158 63 168 145h-48c-8-55-59-98-120-98s-112 43-120 98h-48z"/>
  <path fill="#fff" d="M329 548h366c18 0 31 16 28 34-18 99-105 174-211 174s-193-75-211-174c-3-18 10-34 28-34zm104 65c-12-8-27 4-22 18 15 40 48 72 89 86 15 5 26-12 17-23-11-13-25-28-41-45-17-16-31-28-43-36z"/>
  <path fill="#fff" d="M450 711h124c13 0 24 11 24 24v6c0 21-17 38-38 38h-96c-21 0-38-17-38-38v-6c0-13 11-24 24-24z"/>
  <circle cx="512" cy="491" r="18" fill="#ff5a32"/>
  <circle cx="454" cy="516" r="18" fill="#ff5a32"/>
  <circle cx="570" cy="516" r="18" fill="#ff5a32"/>
  <path fill="#fff" d="M424 363c0-22 13-40 26-57 9-12 18-24 18-37 0-16-10-27-19-35-8-8-8-21 0-29 8-9 22-9 31-1 21 20 31 42 31 65 0 28-15 49-29 67-9 12-17 23-17 35 0 16 10 28 18 38 7 9 5 22-4 29-9 7-22 6-29-3-14-17-26-39-26-72z"/>
  <path fill="#fff" d="M512 344c0-31 18-55 35-77 12-16 23-31 23-48 0-20-11-35-23-47-8-8-8-22 0-30 8-8 22-8 30 0 23 23 35 48 35 77 0 32-18 56-35 79-12 16-23 30-23 46 0 21 12 37 23 50 8 10 6 24-4 31-10 8-24 6-31-4-15-19-30-45-30-77z"/>
  <path fill="#fff" d="M604 363c0-22 13-40 26-57 9-12 18-24 18-37 0-16-10-27-19-35-8-8-8-21 0-29 8-9 22-9 31-1 21 20 31 42 31 65 0 28-15 49-29 67-9 12-17 23-17 35 0 16 10 28 18 38 7 9 5 22-4 29-9 7-22 6-29-3-14-17-26-39-26-72z"/>
</svg>
